<svg width="16" height="16" viewBox="0 0 16 16" fill="none" xmlns="http://www.w3.org/2000/svg">
<path d="M14.2555 1H12.7601V2.5C12.7601 2.8 12.5109 3 12.2617 3C12.0125 3 11.7632 2.8 11.7632 2.5V1H3.78816V2.5C3.78816 2.8 3.53894 3 3.28972 3C3.0405 3 2.79128 2.8 2.79128 2.5V1H1.29595C0.548287 1 0 1.65 0 2.5V4.3H15.9502V2.5C15.9502 1.65 15.053 1 14.2555 1ZM0 5.35V14.5C0 15.4 0.548287 16 1.34579 16H14.3053C15.1028 16 16 15.35 16 14.5V5.35H0ZM4.43614 13.75H3.23988C3.0405 13.75 2.84112 13.6 2.84112 13.35V12.1C2.84112 11.9 2.99065 11.7 3.23988 11.7H4.48598C4.68536 11.7 4.88474 11.85 4.88474 12.1V13.35C4.83489 13.6 4.68536 13.75 4.43614 13.75ZM4.43614 9.25H3.23988C3.0405 9.25 2.84112 9.1 2.84112 8.85V7.6C2.84112 7.4 2.99065 7.2 3.23988 7.2H4.48598C4.68536 7.2 4.88474 7.35 4.88474 7.6V8.85C4.83489 9.1 4.68536 9.25 4.43614 9.25ZM8.42368 13.75H7.17757C6.97819 13.75 6.77882 13.6 6.77882 13.35V12.1C6.77882 11.9 6.92835 11.7 7.17757 11.7H8.42368C8.62305 11.7 8.82243 11.85 8.82243 12.1V13.35C8.82243 13.6 8.6729 13.75 8.42368 13.75ZM8.42368 9.25H7.17757C6.97819 9.25 6.77882 9.1 6.77882 8.85V7.6C6.77882 7.4 6.92835 7.2 7.17757 7.2H8.42368C8.62305 7.2 8.82243 7.35 8.82243 7.6V8.85C8.82243 9.1 8.6729 9.25 8.42368 9.25ZM12.4112 13.75H11.1651C10.9657 13.75 10.7664 13.6 10.7664 13.35V12.1C10.7664 11.9 10.9159 11.7 11.1651 11.7H12.4112C12.6106 11.7 12.81 11.85 12.81 12.1V13.35C12.81 13.6 12.6604 13.75 12.4112 13.75ZM12.4112 9.25H11.1651C10.9657 9.25 10.7664 9.1 10.7664 8.85V7.6C10.7664 7.4 10.9159 7.2 11.1651 7.2H12.4112C12.6106 7.2 12.81 7.35 12.81 7.6V8.85C12.81 9.1 12.6604 9.25 12.4112 9.25Z" fill="#9C9C9C"/>
</svg>
