<svg width="16" height="16" viewBox="0 0 16 16" fill="none" xmlns="http://www.w3.org/2000/svg">
<path d="M14.6926 12.2037L12.8134 9.89518C12.1423 9.07069 10.8665 9.26095 10.4889 10.2198C10.2105 10.8821 9.44306 11.1946 8.79409 10.9832C7.35549 10.4713 5.53696 8.32096 5.30411 6.69588C5.14128 5.99369 5.64669 5.27554 6.32777 5.10797C7.3094 4.89116 7.71268 3.6291 7.04153 2.80461L5.16231 0.496059C4.61897 -0.087726 3.73655 -0.167476 3.17687 0.316621L1.65772 1.6306C0.132156 3.02038 1.33613 7.17748 4.49054 11.0526C7.64495 14.9276 11.4011 16.9475 13.0002 15.5644L14.5193 14.2504C15.0854 13.6905 15.1625 12.7809 14.6926 12.2037Z" fill="#7600A8"/>
</svg>
